<?xml version="1.0" encoding="UTF-8" standalone="no"?>
<svg
   xmlns:dc="http://purl.org/dc/elements/1.1/"
   xmlns:cc="http://creativecommons.org/ns#"
   xmlns:rdf="http://www.w3.org/1999/02/22-rdf-syntax-ns#"
   xmlns:svg="http://www.w3.org/2000/svg"
   xmlns="http://www.w3.org/2000/svg"
   xmlns:sodipodi="http://sodipodi.sourceforge.net/DTD/sodipodi-0.dtd"
   xmlns:inkscape="http://www.inkscape.org/namespaces/inkscape"
   version="1.1"
   width="76"
   height="76"
   viewBox="0 0 76.00 76.00"
   enable-background="new 0 0 76.00 76.00"
   xml:space="preserve"
   id="svg3659"
   inkscape:version="0.91 r13725"
   sodipodi:docname="appbar.cog.svg"><metadata
     id="metadata3667"><rdf:RDF><cc:Work
         rdf:about=""><dc:format>image/svg+xml</dc:format><dc:type
           rdf:resource="http://purl.org/dc/dcmitype/StillImage" /></cc:Work></rdf:RDF></metadata><defs
     id="defs3665" /><sodipodi:namedview
     pagecolor="#ffffff"
     bordercolor="#666666"
     borderopacity="1"
     objecttolerance="10"
     gridtolerance="10"
     guidetolerance="10"
     inkscape:pageopacity="0"
     inkscape:pageshadow="2"
     inkscape:window-width="1317"
     inkscape:window-height="744"
     id="namedview3663"
     showgrid="false"
     inkscape:zoom="7.9868421"
     inkscape:cx="38"
     inkscape:cy="38"
     inkscape:window-x="49"
     inkscape:window-y="24"
     inkscape:window-maximized="1"
     inkscape:current-layer="svg3659" /><path
     d="m 19.637061,9.6939508 9.614556,-4.2806867 3.067916,6.8906009 c 3.34629,-0.743385 6.740643,-0.807584 10.007473,-0.259781 L 45.030947,5 54.85652,8.7716491 52.15258,15.815733 c 2.794101,1.778825 5.273517,4.097734 7.262838,6.889197 l 6.890619,-3.067907 4.280873,9.614705 -6.890619,3.067907 c 0.743387,3.346282 0.807587,6.740451 0.259782,10.007447 L 71,45.031016 67.228341,54.856388 60.184414,52.15263 c -1.77883,2.794269 -4.097746,5.273678 -6.889215,7.262994 l 3.06774,6.890601 -9.614556,4.280686 -3.067916,-6.8906 c -3.34629,0.743384 -6.740468,0.807584 -10.007298,0.259781 L 30.969229,71 21.143655,67.228351 23.847596,60.184443 C 21.053319,58.405618 18.573728,56.086708 16.584407,53.29507 L 9.6937878,56.362977 5.4130898,46.748272 12.303709,43.680365 C 11.560322,40.334258 11.496122,36.94009 12.043927,33.673093 L 5,30.969335 8.7716591,21.143788 15.815586,23.847721 c 1.77883,-2.794269 4.097746,-5.273854 6.889391,-7.26317 L 19.637061,9.6939508 Z M 31.578953,23.578117 c -7.965179,3.546248 -11.54722,12.878019 -8.000962,20.843001 3.546258,7.965157 12.878053,11.547189 20.843056,8.000941 C 52.386226,48.87581 55.968267,39.54404 52.422009,31.579058 48.875751,23.6139 39.543956,20.031869 31.578953,23.578117 Z"
     id="path3661"
     inkscape:connector-curvature="0"
     style="fill:#000000;fill-opacity:1;stroke-width:0.2;stroke-linejoin:round" /></svg>