<?xml version="1.0" encoding="UTF-8" standalone="no"?>
<svg
   xmlns:dc="http://purl.org/dc/elements/1.1/"
   xmlns:cc="http://creativecommons.org/ns#"
   xmlns:rdf="http://www.w3.org/1999/02/22-rdf-syntax-ns#"
   xmlns:svg="http://www.w3.org/2000/svg"
   xmlns="http://www.w3.org/2000/svg"
   xmlns:sodipodi="http://sodipodi.sourceforge.net/DTD/sodipodi-0.dtd"
   xmlns:inkscape="http://www.inkscape.org/namespaces/inkscape"
   version="1.1"
   width="76"
   height="76"
   viewBox="0 0 76.00 76.00"
   enable-background="new 0 0 76.00 76.00"
   xml:space="preserve"
   id="svg3474"
   inkscape:version="0.91 r13725"
   sodipodi:docname="appbar.arrow.expand.svg"><metadata
     id="metadata3482"><rdf:RDF><cc:Work
         rdf:about=""><dc:format>image/svg+xml</dc:format><dc:type
           rdf:resource="http://purl.org/dc/dcmitype/StillImage" /></cc:Work></rdf:RDF></metadata><defs
     id="defs3480" /><sodipodi:namedview
     pagecolor="#ffffff"
     bordercolor="#666666"
     borderopacity="1"
     objecttolerance="10"
     gridtolerance="10"
     guidetolerance="10"
     inkscape:pageopacity="0"
     inkscape:pageshadow="2"
     inkscape:window-width="1317"
     inkscape:window-height="744"
     id="namedview3478"
     showgrid="false"
     inkscape:zoom="7.9868421"
     inkscape:cx="38"
     inkscape:cy="38"
     inkscape:window-x="49"
     inkscape:window-y="24"
     inkscape:window-maximized="1"
     inkscape:current-layer="svg3474" /><path
     d="M 25.2125,71 5,71 5,50.7875 l 6.6,-6.6 0,14.85 13.2,-13.2 5.3625,5.3625 -13.2,13.2 14.85,0 -6.6,6.6 z M 71,50.7875 71,71 l -20.2125,0 -6.6,-6.6 14.85,0 -13.2,-13.2 5.3625,-5.3625 13.2,13.2 0,-14.85 6.6,6.6 z M 50.7875,5 71,5 l 0,20.2125 -6.6,6.6 0,-14.85 -13.2,13.2 -5.3625,-5.3625 13.2,-13.2 -14.85,0 6.6,-6.6 z M 5,25.2125 5,5 l 20.2125,0 6.6,6.6 -14.85,0 13.2,13.2 -5.3625,5.3625 -13.2,-13.2 0,14.85 -6.6,-6.6 z"
     id="path3476"
     inkscape:connector-curvature="0"
     style="fill:#000000;fill-opacity:1;stroke-width:0.2;stroke-linejoin:round" /></svg>