<?xml version="1.0" encoding="UTF-8" standalone="no"?>
<svg
   xmlns:dc="http://purl.org/dc/elements/1.1/"
   xmlns:cc="http://creativecommons.org/ns#"
   xmlns:rdf="http://www.w3.org/1999/02/22-rdf-syntax-ns#"
   xmlns:svg="http://www.w3.org/2000/svg"
   xmlns="http://www.w3.org/2000/svg"
   xmlns:sodipodi="http://sodipodi.sourceforge.net/DTD/sodipodi-0.dtd"
   xmlns:inkscape="http://www.inkscape.org/namespaces/inkscape"
   version="1.1"
   width="76"
   height="76"
   viewBox="0 0 76.00 76.00"
   enable-background="new 0 0 76.00 76.00"
   xml:space="preserve"
   id="svg3380"
   inkscape:version="0.91 r13725"
   sodipodi:docname="appbar.connection.wifi.variant.svg"><metadata
     id="metadata3388"><rdf:RDF><cc:Work
         rdf:about=""><dc:format>image/svg+xml</dc:format><dc:type
           rdf:resource="http://purl.org/dc/dcmitype/StillImage" /></cc:Work></rdf:RDF></metadata><defs
     id="defs3386" /><sodipodi:namedview
     pagecolor="#ffffff"
     bordercolor="#666666"
     borderopacity="1"
     objecttolerance="10"
     gridtolerance="10"
     guidetolerance="10"
     inkscape:pageopacity="0"
     inkscape:pageshadow="2"
     inkscape:window-width="1317"
     inkscape:window-height="744"
     id="namedview3384"
     showgrid="false"
     inkscape:zoom="7.9868421"
     inkscape:cx="38"
     inkscape:cy="38"
     inkscape:window-x="49"
     inkscape:window-y="24"
     inkscape:window-maximized="1"
     inkscape:current-layer="svg3380" /><path
     d="M 64.052632,57.105263 C 67.889489,57.105263 71,60.215774 71,64.052632 71,67.889489 67.889489,71 64.052632,71 c -3.836858,0 -6.947369,-3.110511 -6.947369,-6.947368 0,-3.836858 3.110511,-6.947369 6.947369,-6.947369 z M 71,13.684211 C 39.345358,13.684211 13.684211,39.345358 13.684211,71 L 5,71 C 5,34.549242 34.549242,5 71,5 l 0,8.684211 z m 0,17.368421 C 48.937589,31.052632 31.052632,48.937763 31.052632,71 l -8.684211,0 C 22.368421,44.141474 44.141474,22.368421 71,22.368421 l 0,8.684211 z m 0,17.368421 C 58.529995,48.421053 48.421053,58.529995 48.421053,71 l -8.684211,0 C 39.736842,53.733879 53.733879,39.736842 71,39.736842 l 0,8.684211 z"
     id="path3382"
     inkscape:connector-curvature="0"
     style="fill:#000000;fill-opacity:1;stroke-width:0.2;stroke-linejoin:round" /></svg>