<?xml version="1.0" encoding="UTF-8" standalone="no"?>
<svg
   xmlns:dc="http://purl.org/dc/elements/1.1/"
   xmlns:cc="http://creativecommons.org/ns#"
   xmlns:rdf="http://www.w3.org/1999/02/22-rdf-syntax-ns#"
   xmlns:svg="http://www.w3.org/2000/svg"
   xmlns="http://www.w3.org/2000/svg"
   xmlns:sodipodi="http://sodipodi.sourceforge.net/DTD/sodipodi-0.dtd"
   xmlns:inkscape="http://www.inkscape.org/namespaces/inkscape"
   version="1.1"
   width="76"
   height="76"
   viewBox="0 0 76.00 76.00"
   enable-background="new 0 0 76.00 76.00"
   xml:space="preserve"
   id="svg3422"
   inkscape:version="0.91 r13725"
   sodipodi:docname="appbar.arrow.collapsed.svg"><metadata
     id="metadata3430"><rdf:RDF><cc:Work
         rdf:about=""><dc:format>image/svg+xml</dc:format><dc:type
           rdf:resource="http://purl.org/dc/dcmitype/StillImage" /></cc:Work></rdf:RDF></metadata><defs
     id="defs3428" /><sodipodi:namedview
     pagecolor="#ffffff"
     bordercolor="#666666"
     borderopacity="1"
     objecttolerance="10"
     gridtolerance="10"
     guidetolerance="10"
     inkscape:pageopacity="0"
     inkscape:pageshadow="2"
     inkscape:window-width="1317"
     inkscape:window-height="744"
     id="namedview3426"
     showgrid="false"
     inkscape:zoom="7.9868421"
     inkscape:cx="38"
     inkscape:cy="38"
     inkscape:window-x="49"
     inkscape:window-y="24"
     inkscape:window-maximized="1"
     inkscape:current-layer="svg3422" /><path
     d="m 64.481465,31.481384 -19.962849,0 0,-19.962849 L 51.036988,5 l 0,14.666703 13.037069,-13.0370693 5.296309,5.2963093 -13.037069,13.037069 14.666703,0 -6.518535,6.518372 z m -32.999918,-19.962849 0,19.962849 -19.963012,0 L 5,24.963012 l 14.666703,0 L 6.6296337,11.925943 11.925943,6.6296337 24.963012,19.666703 24.963012,5 l 6.518535,6.518535 z m -19.963012,32.999918 19.963012,0 0,19.963012 L 24.963012,71 l 0,-14.666703 L 11.925943,69.370366 6.6296337,64.074057 19.666703,51.036988 5,51.036988 11.518535,44.518453 Z m 33.000081,19.963012 0,-19.963012 19.962849,0 L 71,51.036988 56.333297,51.037151 69.370366,64.074057 64.074057,69.370366 51.036988,56.333297 51.036988,71 44.518616,64.481465 Z"
     id="path3424"
     inkscape:connector-curvature="0"
     style="fill:#000000;fill-opacity:1;stroke-width:0.2;stroke-linejoin:round" /></svg>