<?xml version="1.0" encoding="UTF-8" standalone="no"?>
<svg
   xmlns:dc="http://purl.org/dc/elements/1.1/"
   xmlns:cc="http://creativecommons.org/ns#"
   xmlns:rdf="http://www.w3.org/1999/02/22-rdf-syntax-ns#"
   xmlns:svg="http://www.w3.org/2000/svg"
   xmlns="http://www.w3.org/2000/svg"
   xmlns:sodipodi="http://sodipodi.sourceforge.net/DTD/sodipodi-0.dtd"
   xmlns:inkscape="http://www.inkscape.org/namespaces/inkscape"
   version="1.1"
   width="76"
   height="76"
   viewBox="0 0 76.00 76.00"
   enable-background="new 0 0 76.00 76.00"
   xml:space="preserve"
   id="svg3531"
   inkscape:version="0.91 r13725"
   sodipodi:docname="appbar.clock.svg"><metadata
     id="metadata3539"><rdf:RDF><cc:Work
         rdf:about=""><dc:format>image/svg+xml</dc:format><dc:type
           rdf:resource="http://purl.org/dc/dcmitype/StillImage" /></cc:Work></rdf:RDF></metadata><defs
     id="defs3537" /><sodipodi:namedview
     pagecolor="#ffffff"
     bordercolor="#666666"
     borderopacity="1"
     objecttolerance="10"
     gridtolerance="10"
     guidetolerance="10"
     inkscape:pageopacity="0"
     inkscape:pageshadow="2"
     inkscape:window-width="1317"
     inkscape:window-height="744"
     id="namedview3535"
     showgrid="false"
     inkscape:zoom="7.9868421"
     inkscape:cx="38"
     inkscape:cy="38"
     inkscape:window-x="49"
     inkscape:window-y="24"
     inkscape:window-maximized="1"
     inkscape:current-layer="svg3531" /><path
     d="m 38,11.000052 c 16.568495,0 29.999879,13.431384 29.999879,29.999879 C 67.999879,57.568426 54.568495,71 38,71 21.431505,71 8.0001206,57.568426 8.0001206,40.999931 8.0001206,24.431436 21.431505,11.000052 38,11.000052 Z m 0,7.499922 c -12.426418,0 -22.499957,10.073728 -22.499957,22.499957 0,12.426418 10.073539,22.499957 22.499957,22.499957 12.426418,0 22.499957,-10.073539 22.499957,-22.499957 C 60.499957,28.573702 50.426418,18.499974 38,18.499974 Z m -0.749935,6.000052 c 1.656754,0 2.999931,1.343176 2.999931,2.999931 l 0,11.250168 11.249978,0 c 1.656755,0 2.999931,1.342987 2.999931,2.999931 l 0,1.499871 c 0,1.656944 -1.343176,3.00012 -2.999931,3.00012 l -13.499974,0 c -1.50006,-0.250104 -2.999931,-0.50002 -3.875108,-1.375008 -0.874988,-0.874987 -1.124903,-2.375048 -1.374819,-3.875108 l 0,-13.499974 c 0,-1.656755 1.342987,-2.999931 2.999931,-2.999931 l 1.500061,0 z M 58.999897,5 C 65.627294,5 71,10.372706 71,17.000103 71,19.859066 70.000149,22.484598 68.330889,24.546068 64.418076,17.348545 58.018046,11.699019 50.284503,8.7513823 52.471783,6.4411341 55.567587,5 58.999897,5 Z m -41.999794,1.895e-4 c 3.43231,0 6.528114,1.4409446 8.715394,3.7511928 C 17.981954,11.699019 11.581924,17.348545 7.6691107,24.546068 5.9998507,22.484598 5,19.859066 5,17.000103 5,10.372706 10.372706,5.0001895 17.000103,5.0001895 Z"
     id="path3533"
     inkscape:connector-curvature="0"
     style="fill:#000000;fill-opacity:1;stroke-width:0.2;stroke-linejoin:round" /></svg>