<?xml version="1.0" encoding="UTF-8" standalone="no"?>
<svg
   xmlns:dc="http://purl.org/dc/elements/1.1/"
   xmlns:cc="http://creativecommons.org/ns#"
   xmlns:rdf="http://www.w3.org/1999/02/22-rdf-syntax-ns#"
   xmlns:svg="http://www.w3.org/2000/svg"
   xmlns="http://www.w3.org/2000/svg"
   id="svg2"
   xml:space="preserve"
   enable-background="new 0 0 76.00 76.00"
   viewBox="0 0 76.00 76.00"
   height="76"
   width="76"
   version="1.1"><metadata
     id="metadata10"><rdf:RDF><cc:Work
         rdf:about=""><dc:format>image/svg+xml</dc:format><dc:type
           rdf:resource="http://purl.org/dc/dcmitype/StillImage" /><dc:title></dc:title></cc:Work></rdf:RDF></metadata><defs
     id="defs8" /><path
     style="fill:#eb7d1a;fill-opacity:1;stroke-width:0.2;stroke-linejoin:round"
     id="path4"
     d="m 2.9788136,51.614084 9.4249574,1.71e-4 27.685276,-38.119812 12.95928,0 -10.013814,-10.8913023 15.315297,0 15.315444,16.3368673 -15.315444,16.337209 -15.315297,0 10.013814,-10.891473 -10.013814,0 -28.274576,38.119813 -11.7811234,0 0,-10.891473 z m 0,-27.22834 0,-10.891301 11.7811234,0 11.19197,15.08906 -5.305054,7.152356 -8.243229,-11.350115 -9.4248104,0 z m 40.0556994,27.228511 10.013814,0 -10.013964,-10.891472 15.315447,1.72e-4 15.315444,16.337038 -15.315444,16.336866 -15.315447,0 10.013964,-10.891302 -12.95943,0 -10.782584,-14.846584 5.39717,-7.276517 8.33103,11.231799 z" /></svg>