<?xml version="1.0" encoding="UTF-8" standalone="no"?>
<svg
   xmlns:dc="http://purl.org/dc/elements/1.1/"
   xmlns:cc="http://creativecommons.org/ns#"
   xmlns:rdf="http://www.w3.org/1999/02/22-rdf-syntax-ns#"
   xmlns:svg="http://www.w3.org/2000/svg"
   xmlns="http://www.w3.org/2000/svg"
   xmlns:sodipodi="http://sodipodi.sourceforge.net/DTD/sodipodi-0.dtd"
   xmlns:inkscape="http://www.inkscape.org/namespaces/inkscape"
   version="1.1"
   width="76.0106"
   height="76.0106"
   viewBox="0 0 76.01 76.01"
   enable-background="new 0 0 76.01 76.01"
   xml:space="preserve"
   id="svg4770"
   inkscape:version="0.91 r13725"
   sodipodi:docname="appbar.sound.2.svg"><metadata
     id="metadata4778"><rdf:RDF><cc:Work
         rdf:about=""><dc:format>image/svg+xml</dc:format><dc:type
           rdf:resource="http://purl.org/dc/dcmitype/StillImage" /></cc:Work></rdf:RDF></metadata><defs
     id="defs4776" /><sodipodi:namedview
     pagecolor="#ffffff"
     bordercolor="#666666"
     borderopacity="1"
     objecttolerance="10"
     gridtolerance="10"
     guidetolerance="10"
     inkscape:pageopacity="0"
     inkscape:pageshadow="2"
     inkscape:window-width="1317"
     inkscape:window-height="744"
     id="namedview4774"
     showgrid="false"
     inkscape:zoom="7.9857286"
     inkscape:cx="53.810406"
     inkscape:cy="33.917577"
     inkscape:window-x="49"
     inkscape:window-y="24"
     inkscape:window-maximized="1"
     inkscape:current-layer="svg4770" /><path
     d="M 9.2224271,24.422257 22.676256,24.422012 42.857,5.0105583 l 0,65.9994807 -20.180744,-23.293891 -13.4538289,0 c -3.7150851,0 -6.7269145,-3.476444 -6.7269145,-7.76463 l 0,-7.764631 c 0,-4.288431 3.0118294,-7.76463 6.7269145,-7.76463 z M 73.128222,36.06908 c 0,8.493261 -3.375458,16.076469 -8.662301,21.059945 l -4.79089,-5.529704 c 4.084448,-3.541658 6.726277,-9.179724 6.726277,-15.530241 0,-6.350272 -2.641829,-11.988584 -6.726277,-15.529996 l 4.79089,-5.529949 c 5.286843,4.983475 8.662301,12.566683 8.662301,21.059945 z m -13.453829,0 c 0,5.17642 -2.925595,9.564143 -6.972449,11.080246 l -3.117816,-7.197808 c 1.857436,0 3.36335,-1.738222 3.36335,-3.882438 0,-2.144216 -1.505914,-3.882193 -3.36335,-3.882193 l 3.117816,-7.198053 c 4.046854,1.516102 6.972449,5.903826 6.972449,11.080246 z"
     id="path4772"
     inkscape:connector-curvature="0"
     style="fill:#000000;fill-opacity:1;stroke-width:0.2;stroke-linejoin:round" /></svg>