<?xml version="1.0" encoding="UTF-8" standalone="no"?>
<svg
   xmlns:dc="http://purl.org/dc/elements/1.1/"
   xmlns:cc="http://creativecommons.org/ns#"
   xmlns:rdf="http://www.w3.org/1999/02/22-rdf-syntax-ns#"
   xmlns:svg="http://www.w3.org/2000/svg"
   xmlns="http://www.w3.org/2000/svg"
   xmlns:sodipodi="http://sodipodi.sourceforge.net/DTD/sodipodi-0.dtd"
   xmlns:inkscape="http://www.inkscape.org/namespaces/inkscape"
   viewBox="0 0 640 640"
   height="640"
   width="640"
   version="1.1"
   id="svg3390"
   inkscape:version="0.91 r13725"
   sodipodi:docname="pman-photo-icon.svg">
  <sodipodi:namedview
     pagecolor="#ffffff"
     bordercolor="#666666"
     borderopacity="1"
     objecttolerance="10"
     gridtolerance="10"
     guidetolerance="10"
     inkscape:pageopacity="0"
     inkscape:pageshadow="2"
     inkscape:window-width="1319"
     inkscape:window-height="744"
     id="namedview9453"
     showgrid="false"
     showguides="false"
     inkscape:zoom="0.7375"
     inkscape:cx="229.21638"
     inkscape:cy="292.86365"
     inkscape:window-x="47"
     inkscape:window-y="24"
     inkscape:window-maximized="1"
     inkscape:current-layer="svg3390" />
  <metadata
     id="metadata3396">
    <rdf:RDF>
      <cc:Work
         rdf:about="">
        <dc:format>image/svg+xml</dc:format>
        <dc:type
           rdf:resource="http://purl.org/dc/dcmitype/StillImage" />
        <dc:title></dc:title>
      </cc:Work>
    </rdf:RDF>
  </metadata>
  <defs
     id="defs3394" />
  <path
     id="path3402"
     d="M 99.599193,580.08393 95.237925,579.68618 94.437988,547.3192 C 93.377711,504.4184 94.766333,264.36442 96.134497,254.04021 106.36414,176.84696 150.9068,113.7743 219.41351,79.476394 c 21.1882,-10.607879 43.31774,-17.863037 68.00659,-22.295922 14.99426,-2.69222 58.84001,-2.700628 73.27842,-0.01405 49.45234,9.20167 89.92243,30.390125 124.33859,65.098529 37.09855,37.41357 59.52889,81.76125 66.02184,130.53362 1.75269,13.16561 1.96852,38.86724 0.43946,52.33487 -2.96358,26.10258 -11.65122,55.1808 -23.58332,78.93523 -32.2966,64.29616 -89.06121,109.63432 -155.77852,124.42105 -18.45757,4.09079 -31.61528,5.21641 -53.54149,4.58037 -26.74237,-0.77576 -42.87577,-3.70879 -72.82243,-13.23903 -11.76605,-3.74443 -13.25643,-4.00658 -13.89623,-2.44429 -0.39418,0.96248 -0.75003,19.82862 -0.79078,41.92474 l -0.0741,40.17478 -8.06682,0.68189 c -8.29536,0.70122 -115.53614,0.62796 -123.345517,-0.0842 z M 249.52953,401.51785 c 33.83647,-15.6325 226.27033,-110.52592 228.56652,-112.71124 1.33242,-1.2681 -17.37529,-10.83955 -102.63641,-52.51206 -125.50018,-61.33989 -135.07415,-65.82849 -136.77746,-64.12588 -0.4495,0.44931 -0.95004,52.54714 -1.11231,115.77293 -0.2813,109.60138 -0.11371,117.88377 2.38542,117.88377 0.13785,0 4.44625,-1.93838 9.57424,-4.30752 z"
     style="fill:#e60000;fill-opacity:1;stroke:none;stroke-width:0.2;stroke-linejoin:bevel;stroke-miterlimit:4;stroke-dasharray:none;stroke-opacity:1" />
  <path
     id="path4206"
     d="m 238.31629,392.38221 c -0.89477,-14.11388 0.0852,-218.37654 1.05228,-219.34366 1.53544,-1.53544 19.56072,6.89633 126.87507,59.34893 83.77702,40.94813 110.46493,54.4836 110.28915,55.93601 -0.25826,2.13387 -232.31753,116.44751 -236.39106,116.44751 -0.58023,0 -1.38727,-5.4771 -1.82544,-12.38879 z"
     style="fill:#f2f2f2;fill-opacity:1;stroke:none;stroke-width:0.2;stroke-linejoin:bevel;stroke-miterlimit:4;stroke-dasharray:none;stroke-opacity:1" />
  <path
     id="path11570"
     d="m 283.44068,394.9042 261.59322,0 0,170.60427 -261.59322,0 0,-170.60427 z m 17.06043,17.06042 0,136.48342 227.47236,0 0,-136.48342 -227.47236,0 z m 45.49447,125.1098 34.59457,-37.91225 18.00842,18.00842 72.0331,-72.0331 27.01234,27.01234 18.95584,-20.37754 0,85.30213 -170.60427,0 z m 11.84733,-102.83627 c 0,19.89132 -16.12495,36.01627 -36.01627,36.01627 -3.10898,0 -7.07382,-0.68071 -9.95191,-1.42171 l 0,-45.49447 43.59849,0 c 0.74099,2.8781 2.36969,7.79093 2.36969,10.89991 z"
     inkscape:connector-curvature="0"
     style="display:none;fill:#000000;fill-opacity:1;stroke-width:0.2;stroke-linejoin:round" />
  <path
     id="path12540"
     d="m 341.28725,387.77966 181.58073,0 0,17.02319 39.72078,0 0,170.23194 -39.72078,0 0,28.37199 -181.58073,0 0,-17.0232 -28.37199,0 0,-170.23193 28.37199,0 0,-28.37199 z m 17.02319,17.02319 0,147.53435 147.53435,0 0,-147.53435 -147.53435,0 z m 45.39519,39.72079 c 0,-9.75258 7.92599,-17.02319 17.02319,-17.02319 l 22.69759,0 c 9.09663,0 17.0232,7.27061 17.0232,17.02319 l 17.02318,0 c 9.57555,0 17.0232,6.75707 17.0232,17.02319 l 0,56.74398 c 0,10.26612 -7.44765,17.0232 -17.0232,17.0232 l -90.79036,0 c -9.57554,0 -17.02319,-6.75708 -17.02319,-17.0232 l 0,-56.74398 c 0,-10.26612 7.44765,-17.02319 17.02319,-17.02319 l 17.0232,0 z m -14.186,11.34879 c -4.70067,0 -8.5116,3.81093 -8.5116,8.51161 0,4.70123 3.81036,8.51159 8.5116,8.51159 4.70068,0 8.5116,-3.81036 8.5116,-8.51159 0,-4.70068 -3.81092,-8.51161 -8.5116,-8.51161 z m 42.55798,11.3488 c -12.53531,0 -22.69758,10.16229 -22.69758,22.6976 0,12.5353 10.16227,22.69758 22.69758,22.69758 12.53531,0 22.6976,-10.16228 22.6976,-22.69758 0,-12.53531 -10.16229,-22.6976 -22.6976,-22.6976 z m 0,5.6744 c 9.40135,0 17.0232,7.62185 17.0232,17.0232 0,9.4019 -7.62185,17.02318 -17.0232,17.02318 -9.40191,0 -17.02319,-7.62128 -17.02319,-17.02318 0,-9.40135 7.62128,-17.0232 17.02319,-17.0232 z m -102.13915,-39.72078 0,102.13916 11.34879,0 0,-102.13916 -11.34879,0 z m 192.92952,90.79036 22.69759,0 0,-102.13916 -22.69759,0 0,102.13916 z"
     inkscape:connector-curvature="0"
     style="fill:#000000;fill-opacity:1;stroke-width:0.2;stroke-linejoin:round" />
</svg>
